<?xml version="1.0" encoding="UTF-8"?>
<svg xmlns="http://www.w3.org/2000/svg" xmlns:xlink="http://www.w3.org/1999/xlink" width="250px" height="140px" viewBox="0 0 250 140" version="1.1">
<g id="surface1">
<rect x="0" y="0" width="250" height="140" style="fill:rgb(100%,100%,100%);fill-opacity:1;stroke:none;"/>
<path style=" stroke:none;fill-rule:nonzero;fill:rgb(13.333334%,22.352941%,64.705884%);fill-opacity:1;" d="M 216.941406 70.046875 C 216.941406 72.664062 215.441406 74.636719 212.8125 75.363281 C 203.582031 77.90625 194.339844 80.425781 185.105469 82.960938 L 147.417969 93.324219 L 126.90625 98.960938 C 125.613281 99.3125 124.332031 99.289062 123.039062 98.929688 C 109.664062 95.253906 96.289062 91.578125 82.914062 87.914062 C 67.949219 83.808594 52.988281 79.691406 38.015625 75.601562 C 36.003906 75.054688 34.285156 74.214844 33.484375 72.183594 C 32.210938 68.964844 33.859375 65.714844 37.273438 64.757812 C 40.382812 63.882812 43.507812 63.046875 46.628906 62.191406 L 104.832031 46.210938 L 123.363281 41.128906 C 124.46875 40.824219 125.574219 40.824219 126.679688 41.128906 L 178.046875 55.234375 C 189.5625 58.398438 201.078125 61.558594 212.59375 64.714844 C 215.386719 65.476562 216.9375 67.359375 216.9375 70.050781 Z M 50.105469 70.109375 C 50.121094 72.480469 51.769531 74.546875 54.117188 75.140625 C 56.339844 75.742188 58.574219 76.300781 60.796875 76.882812 C 81.742188 82.347656 102.6875 87.804688 123.628906 93.289062 C 124.597656 93.542969 125.484375 93.539062 126.457031 93.28125 C 141.558594 89.316406 156.667969 85.378906 171.773438 81.4375 C 179.808594 79.339844 187.847656 77.261719 195.875 75.136719 C 198.445312 74.457031 199.953125 72.492188 199.953125 70.074219 C 199.953125 67.621094 198.386719 65.660156 195.792969 64.980469 C 186.949219 62.65625 178.101562 60.351562 169.253906 58.042969 C 154.929688 54.304688 140.609375 50.554688 126.289062 46.800781 C 125.449219 46.574219 124.5625 46.582031 123.726562 46.816406 C 109.585938 50.519531 95.441406 54.214844 81.296875 57.90625 C 72.238281 60.269531 63.183594 62.636719 54.128906 65.007812 C 51.738281 65.589844 50.074219 67.703125 50.101562 70.109375 Z M 50.105469 70.109375 "/>
<path style=" stroke:none;fill-rule:nonzero;fill:rgb(13.333334%,22.352941%,64.705884%);fill-opacity:1;" d="M 198.550781 70.097656 C 198.546875 71.835938 197.34375 73.355469 195.621094 73.800781 C 188.613281 75.640625 181.605469 77.472656 174.59375 79.300781 C 158.492188 83.503906 142.390625 87.710938 126.292969 91.921875 C 125.492188 92.128906 124.75 92.183594 123.921875 91.96875 C 111.261719 88.640625 98.585938 85.34375 85.917969 82.035156 C 75.507812 79.320312 65.097656 76.597656 54.6875 73.867188 C 52.664062 73.332031 51.515625 71.929688 51.5 70.09375 C 51.484375 68.246094 52.703125 66.777344 54.742188 66.246094 L 82.910156 58.898438 C 96.691406 55.304688 110.472656 51.699219 124.253906 48.089844 C 124.898438 47.921875 125.476562 48.027344 126.082031 48.183594 L 156.140625 56.027344 L 195.234375 66.226562 C 197.355469 66.777344 198.566406 68.207031 198.550781 70.105469 Z M 198.550781 70.097656 "/>
<path style=" stroke:none;fill-rule:nonzero;fill:rgb(100%,100%,100%);fill-opacity:1;" d="M 111.023438 73.582031 L 108.136719 73.582031 C 107.980469 73.582031 107.902344 73.539062 107.902344 73.453125 C 107.902344 73.382812 107.96875 73.335938 108.109375 73.308594 L 108.46875 73.261719 C 108.691406 73.230469 108.835938 73.1875 108.902344 73.132812 C 108.972656 73.078125 109.003906 72.96875 109.003906 72.804688 L 109.003906 65.886719 C 109.003906 65.722656 108.972656 65.609375 108.902344 65.554688 C 108.835938 65.5 108.691406 65.457031 108.46875 65.425781 L 108.109375 65.378906 C 107.96875 65.355469 107.902344 65.308594 107.902344 65.238281 C 107.902344 65.152344 107.980469 65.109375 108.136719 65.109375 L 111.023438 65.109375 C 111.183594 65.109375 111.261719 65.15625 111.261719 65.25 C 111.261719 65.320312 111.203125 65.363281 111.085938 65.378906 L 110.660156 65.425781 C 110.4375 65.449219 110.292969 65.492188 110.226562 65.554688 C 110.160156 65.617188 110.125 65.730469 110.125 65.894531 L 110.125 68.851562 C 110.125 68.960938 110.199219 69.015625 110.34375 69.015625 L 113.46875 69.015625 C 113.613281 69.015625 113.6875 68.960938 113.6875 68.851562 L 113.6875 65.894531 C 113.6875 65.730469 113.652344 65.617188 113.585938 65.554688 C 113.515625 65.492188 113.371094 65.449219 113.152344 65.425781 L 112.726562 65.378906 C 112.609375 65.363281 112.550781 65.320312 112.550781 65.25 C 112.550781 65.15625 112.628906 65.109375 112.789062 65.109375 L 115.675781 65.109375 C 115.832031 65.109375 115.910156 65.152344 115.910156 65.238281 C 115.910156 65.308594 115.839844 65.355469 115.703125 65.378906 L 115.34375 65.425781 C 115.121094 65.457031 114.976562 65.5 114.910156 65.554688 C 114.839844 65.609375 114.808594 65.722656 114.808594 65.886719 L 114.808594 72.804688 C 114.808594 72.96875 114.839844 73.078125 114.910156 73.132812 C 114.976562 73.1875 115.121094 73.230469 115.34375 73.261719 L 115.703125 73.308594 C 115.839844 73.335938 115.910156 73.382812 115.910156 73.453125 C 115.910156 73.539062 115.832031 73.582031 115.675781 73.582031 L 112.789062 73.582031 C 112.628906 73.582031 112.550781 73.535156 112.550781 73.441406 C 112.550781 73.371094 112.609375 73.328125 112.726562 73.308594 L 113.152344 73.261719 C 113.371094 73.242188 113.515625 73.195312 113.585938 73.132812 C 113.652344 73.070312 113.6875 72.957031 113.6875 72.792969 L 113.6875 69.535156 C 113.6875 69.421875 113.613281 69.367188 113.46875 69.367188 L 110.34375 69.367188 C 110.199219 69.367188 110.125 69.421875 110.125 69.535156 L 110.125 72.792969 C 110.125 72.957031 110.160156 73.070312 110.226562 73.132812 C 110.292969 73.195312 110.4375 73.242188 110.660156 73.261719 L 111.085938 73.308594 C 111.203125 73.328125 111.261719 73.371094 111.261719 73.441406 C 111.261719 73.535156 111.183594 73.582031 111.023438 73.582031 M 119.234375 73.6875 C 118.730469 73.6875 118.28125 73.5625 117.882812 73.308594 C 117.480469 73.058594 117.160156 72.707031 116.925781 72.246094 C 116.6875 71.785156 116.570312 71.253906 116.570312 70.652344 C 116.570312 70.03125 116.691406 69.484375 116.933594 69.015625 C 117.175781 68.542969 117.507812 68.175781 117.925781 67.910156 C 118.347656 67.640625 118.816406 67.507812 119.328125 67.507812 C 119.949219 67.507812 120.449219 67.699219 120.835938 68.082031 C 121.21875 68.460938 121.410156 69.078125 121.410156 69.933594 C 121.410156 70.191406 121.28125 70.320312 121.015625 70.320312 L 118.023438 70.320312 C 117.8125 70.320312 117.707031 70.410156 117.707031 70.59375 C 117.707031 71.421875 117.871094 72.046875 118.195312 72.464844 C 118.519531 72.878906 118.933594 73.085938 119.441406 73.085938 C 119.839844 73.085938 120.164062 72.980469 120.414062 72.769531 C 120.667969 72.558594 120.875 72.199219 121.035156 71.699219 C 121.0625 71.613281 121.132812 71.570312 121.238281 71.570312 C 121.363281 71.570312 121.410156 71.648438 121.378906 71.804688 C 121.210938 72.503906 120.941406 72.992188 120.574219 73.269531 C 120.207031 73.546875 119.757812 73.6875 119.234375 73.6875 M 117.972656 70.027344 L 119.566406 70.027344 C 120.070312 70.027344 120.324219 69.832031 120.324219 69.4375 C 120.324219 68.929688 120.238281 68.527344 120.070312 68.238281 C 119.902344 67.949219 119.648438 67.804688 119.3125 67.804688 C 118.902344 67.804688 118.558594 67.980469 118.28125 68.332031 C 118.003906 68.6875 117.820312 69.1875 117.738281 69.839844 C 117.714844 69.964844 117.796875 70.027344 117.972656 70.027344 M 120.605469 65.730469 L 117.800781 66.683594 C 117.621094 66.742188 117.5 66.726562 117.4375 66.636719 C 117.367188 66.550781 117.414062 66.464844 117.578125 66.378906 L 119.851562 65.0625 C 119.957031 65 120.054688 64.949219 120.148438 64.917969 C 120.242188 64.890625 120.359375 64.875 120.496094 64.875 C 120.683594 64.875 120.832031 64.914062 120.9375 64.996094 C 121.042969 65.078125 121.09375 65.167969 121.09375 65.261719 C 121.09375 65.363281 121.0625 65.453125 120.992188 65.527344 C 120.921875 65.601562 120.792969 65.667969 120.605469 65.730469 M 124.640625 73.6875 C 124.179688 73.6875 123.761719 73.570312 123.386719 73.339844 C 123.015625 73.109375 122.71875 72.777344 122.496094 72.347656 C 122.277344 71.914062 122.167969 71.402344 122.167969 70.804688 C 122.167969 70.136719 122.300781 69.558594 122.570312 69.0625 C 122.835938 68.566406 123.203125 68.1875 123.664062 67.914062 C 124.125 67.644531 124.640625 67.507812 125.210938 67.507812 C 125.691406 67.507812 126.070312 67.578125 126.34375 67.71875 C 126.449219 67.773438 126.5 67.863281 126.5 67.980469 L 126.535156 69.417969 C 126.535156 69.535156 126.46875 69.59375 126.34375 69.59375 C 126.226562 69.59375 126.152344 69.542969 126.121094 69.4375 C 125.976562 69.007812 125.835938 68.671875 125.695312 68.4375 C 125.558594 68.203125 125.417969 68.039062 125.273438 67.949219 C 125.125 67.859375 124.960938 67.816406 124.785156 67.816406 C 124.574219 67.816406 124.355469 67.90625 124.128906 68.085938 C 123.90625 68.265625 123.714844 68.558594 123.5625 68.960938 C 123.410156 69.367188 123.332031 69.898438 123.332031 70.554688 C 123.332031 71.398438 123.476562 72.027344 123.765625 72.453125 C 124.054688 72.875 124.429688 73.085938 124.894531 73.085938 C 125.261719 73.085938 125.570312 72.972656 125.8125 72.746094 C 126.0625 72.519531 126.273438 72.105469 126.453125 71.511719 C 126.484375 71.421875 126.546875 71.378906 126.640625 71.378906 C 126.769531 71.378906 126.816406 71.457031 126.785156 71.617188 C 126.671875 72.164062 126.507812 72.589844 126.304688 72.894531 C 126.101562 73.195312 125.859375 73.402344 125.578125 73.515625 C 125.300781 73.628906 124.988281 73.6875 124.640625 73.6875 M 129.464844 73.6875 C 129.097656 73.6875 128.796875 73.589844 128.558594 73.398438 C 128.324219 73.207031 128.203125 72.890625 128.203125 72.453125 L 128.203125 68.050781 C 128.203125 67.957031 128.140625 67.910156 128.015625 67.910156 L 127.558594 67.910156 C 127.390625 67.910156 127.304688 67.863281 127.304688 67.769531 C 127.304688 67.707031 127.351562 67.648438 127.445312 67.601562 C 127.792969 67.421875 128.074219 67.230469 128.285156 67.019531 C 128.492188 66.8125 128.679688 66.527344 128.835938 66.167969 C 128.90625 66.003906 128.996094 65.921875 129.101562 65.921875 C 129.21875 65.921875 129.277344 65.984375 129.277344 66.109375 L 129.277344 67.414062 C 129.277344 67.523438 129.347656 67.578125 129.496094 67.578125 L 130.519531 67.578125 C 130.6875 67.578125 130.773438 67.636719 130.773438 67.746094 C 130.773438 67.855469 130.6875 67.910156 130.519531 67.910156 L 129.496094 67.910156 C 129.347656 67.910156 129.277344 67.964844 129.277344 68.074219 L 129.277344 72.464844 C 129.277344 72.636719 129.3125 72.769531 129.386719 72.867188 C 129.460938 72.964844 129.59375 73.015625 129.792969 73.015625 C 130.015625 73.015625 130.195312 72.933594 130.339844 72.769531 C 130.480469 72.605469 130.574219 72.339844 130.613281 71.96875 C 130.636719 71.859375 130.703125 71.804688 130.820312 71.804688 C 130.945312 71.804688 131.007812 71.863281 131.007812 71.980469 C 130.980469 72.585938 130.8125 73.019531 130.511719 73.289062 C 130.214844 73.554688 129.863281 73.6875 129.464844 73.6875 M 134.429688 73.6875 C 133.894531 73.6875 133.414062 73.550781 132.984375 73.28125 C 132.5625 73.011719 132.222656 72.640625 131.972656 72.167969 C 131.71875 71.699219 131.59375 71.171875 131.59375 70.59375 C 131.59375 70.011719 131.71875 69.488281 131.972656 69.027344 C 132.222656 68.5625 132.566406 68.195312 132.996094 67.921875 C 133.425781 67.644531 133.90625 67.507812 134.429688 67.507812 C 134.964844 67.507812 135.445312 67.644531 135.871094 67.921875 C 136.296875 68.195312 136.636719 68.5625 136.886719 69.027344 C 137.140625 69.488281 137.269531 70.011719 137.269531 70.59375 C 137.269531 71.171875 137.144531 71.699219 136.898438 72.167969 C 136.648438 72.640625 136.308594 73.011719 135.878906 73.28125 C 135.449219 73.550781 134.964844 73.6875 134.429688 73.6875 M 134.429688 73.394531 C 135.523438 73.394531 136.070312 72.460938 136.070312 70.59375 C 136.070312 68.734375 135.523438 67.804688 134.429688 67.804688 C 133.335938 67.804688 132.789062 68.734375 132.789062 70.59375 C 132.789062 72.460938 133.335938 73.394531 134.429688 73.394531 M 140.089844 68.332031 C 140.519531 67.785156 141.039062 67.507812 141.648438 67.507812 C 141.996094 67.507812 142.25 67.585938 142.421875 67.738281 C 142.589844 67.890625 142.671875 68.0625 142.671875 68.25 C 142.671875 68.398438 142.621094 68.523438 142.523438 68.613281 C 142.421875 68.710938 142.269531 68.757812 142.058594 68.757812 C 141.890625 68.757812 141.765625 68.726562 141.6875 68.667969 C 141.609375 68.609375 141.546875 68.542969 141.496094 68.460938 C 141.453125 68.382812 141.398438 68.316406 141.332031 68.257812 C 141.269531 68.199219 141.164062 68.167969 141.019531 68.167969 C 140.828125 68.167969 140.652344 68.253906 140.484375 68.421875 C 140.3125 68.589844 140.175781 68.816406 140.066406 69.097656 C 139.953125 69.378906 139.898438 69.703125 139.898438 70.0625 L 139.898438 72.792969 C 139.898438 72.957031 139.933594 73.074219 140 73.144531 C 140.070312 73.214844 140.214844 73.257812 140.433594 73.277344 L 140.859375 73.308594 C 140.976562 73.328125 141.035156 73.371094 141.035156 73.441406 C 141.035156 73.535156 140.957031 73.582031 140.796875 73.582031 L 138.136719 73.582031 C 137.976562 73.582031 137.898438 73.539062 137.898438 73.453125 C 137.898438 73.382812 137.964844 73.335938 138.101562 73.308594 L 138.292969 73.289062 C 138.511719 73.257812 138.65625 73.207031 138.726562 73.140625 C 138.792969 73.074219 138.828125 72.957031 138.828125 72.792969 L 138.828125 68.835938 C 138.828125 68.695312 138.796875 68.601562 138.738281 68.550781 C 138.683594 68.5 138.582031 68.464844 138.433594 68.449219 L 138.101562 68.417969 C 137.964844 68.40625 137.898438 68.363281 137.898438 68.285156 C 137.898438 68.222656 137.980469 68.179688 138.148438 68.15625 C 138.472656 68.117188 138.722656 68.054688 138.898438 67.96875 C 139.070312 67.878906 139.253906 67.773438 139.441406 67.652344 C 139.535156 67.578125 139.613281 67.542969 139.679688 67.542969 C 139.773438 67.542969 139.820312 67.589844 139.820312 67.683594 L 139.820312 68.320312 C 139.820312 68.375 139.851562 68.410156 139.914062 68.421875 C 139.976562 68.433594 140.035156 68.402344 140.089844 68.332031 "/>
</g>
</svg>
